<?xml version="1.0" standalone="no"?>
<!DOCTYPE svg PUBLIC "-//W3C//DTD SVG 20010904//EN"
 "http://www.w3.org/TR/2001/REC-SVG-20010904/DTD/svg10.dtd">
<svg version="1.0" xmlns="http://www.w3.org/2000/svg"
 width="1242.000000pt" height="1242.000000pt" viewBox="0 0 1242.000000 1242.000000"
 preserveAspectRatio="xMidYMid meet">
<metadata>
Created by potrace 1.14, written by Peter Selinger 2001-2017
</metadata>
<g transform="translate(0.000000,1242.000000) scale(0.100000,-0.100000)"
fill="#000000" stroke="none">
<path d="M11860 12242 c0 -151 -3 -181 -17 -202 -37 -54 -77 -82 -208 -146
-52 -25 -97 -49 -100 -54 -2 -4 -24 -10 -47 -13 -46 -7 -98 -27 -98 -39 0 -5
-4 -8 -9 -8 -6 0 -39 -20 -74 -44 -36 -25 -79 -47 -96 -49 -17 -3 -44 -15 -60
-26 -16 -12 -34 -21 -40 -21 -7 0 -24 -11 -39 -25 -15 -14 -32 -25 -38 -25 -7
0 -25 -7 -40 -15 -16 -8 -37 -15 -46 -15 -10 0 -18 -4 -18 -10 0 -5 -12 -13
-27 -16 -16 -4 -52 -17 -81 -30 -29 -13 -65 -24 -80 -25 -15 0 -21 -3 -15 -6
13 -5 -232 -133 -255 -133 -7 0 -15 -7 -18 -15 -3 -8 -21 -20 -40 -27 -19 -6
-34 -18 -34 -25 0 -7 -12 -13 -27 -13 -16 -1 -53 -14 -83 -30 -30 -17 -60 -30
-66 -30 -7 0 -14 -6 -17 -14 -3 -8 -33 -24 -66 -37 -34 -12 -61 -28 -61 -35 0
-8 -7 -14 -15 -14 -15 0 -55 -16 -151 -61 -33 -16 -66 -29 -72 -29 -7 0 -12
-4 -12 -10 0 -5 -11 -12 -25 -16 -14 -3 -25 -10 -25 -14 0 -5 -21 -12 -46 -16
-26 -4 -55 -15 -64 -24 -10 -10 -49 -27 -88 -39 -39 -13 -82 -31 -96 -42 -13
-10 -29 -19 -35 -19 -6 0 -11 -4 -11 -8 0 -4 -19 -8 -43 -10 -32 -1 -49 4 -68
21 -13 12 -40 31 -59 41 -19 11 -41 26 -48 33 -7 7 -20 13 -28 13 -8 0 -14 5
-14 10 0 6 -6 10 -12 10 -12 0 -109 59 -216 131 -23 16 -47 29 -52 29 -6 0
-10 4 -10 9 0 5 -24 20 -53 35 -30 14 -64 35 -77 46 -13 11 -31 20 -42 20 -10
0 -18 4 -18 9 0 5 -22 18 -49 30 -28 11 -53 26 -56 31 -3 6 -15 10 -26 10 -10
0 -19 5 -19 10 0 6 -7 10 -15 10 -8 0 -52 19 -97 41 -46 23 -99 49 -118 57
-19 8 -42 19 -50 24 -15 8 -20 10 -80 33 -31 12 -87 28 -185 55 -16 5 -55 16
-86 24 -31 9 -73 16 -95 16 -21 0 -59 5 -84 11 -45 10 -146 23 -295 38 -44 4
-116 20 -160 34 -129 44 -140 47 -164 47 -12 0 -32 5 -44 12 -36 19 -232 47
-342 47 -83 1 -237 -20 -340 -45 -130 -32 -290 -79 -293 -86 -2 -5 -8 -8 -13
-8 -4 0 -32 -11 -61 -24 -29 -13 -80 -27 -113 -30 -33 -4 -100 -11 -150 -16
-49 -5 -132 -10 -182 -10 -89 0 -124 -5 -243 -37 -115 -32 -138 -41 -390 -162
-47 -23 -89 -41 -92 -41 -16 0 -117 -67 -111 -73 3 -4 -1 -7 -10 -7 -9 0 -35
-13 -59 -29 -24 -15 -62 -36 -85 -46 -24 -11 -43 -22 -43 -27 0 -4 -7 -8 -15
-8 -8 0 -15 -7 -15 -15 0 -8 -9 -15 -20 -15 -11 0 -20 -4 -20 -10 0 -5 -6 -10
-13 -10 -8 0 -43 -22 -78 -50 -35 -27 -74 -58 -87 -67 -13 -10 -29 -23 -36
-29 -6 -6 -23 -17 -36 -24 -25 -13 -55 -39 -117 -97 -18 -18 -37 -33 -41 -33
-9 0 -181 -178 -277 -285 -33 -37 -66 -73 -72 -80 -7 -8 -13 -18 -13 -24 0 -5
-11 -18 -24 -28 -13 -10 -26 -28 -30 -40 -4 -12 -16 -25 -27 -28 -10 -4 -19
-10 -19 -15 0 -5 -17 -27 -38 -49 -21 -22 -45 -53 -52 -68 -14 -27 -20 -35
-77 -99 -96 -108 -128 -148 -145 -184 -11 -22 -26 -40 -33 -40 -7 0 -20 -15
-29 -32 -26 -52 -38 -68 -87 -120 -50 -51 -89 -116 -89 -148 0 -11 -4 -20 -10
-20 -5 0 -10 -6 -10 -14 0 -21 -33 -80 -50 -90 -16 -10 -62 -57 -119 -120 -30
-34 -33 -43 -29 -86 4 -41 0 -55 -28 -101 -19 -30 -38 -65 -44 -78 -6 -14 -26
-46 -45 -72 -19 -25 -35 -51 -35 -57 0 -6 -6 -17 -14 -25 -8 -8 -20 -52 -26
-98 -10 -75 -34 -170 -61 -237 -5 -13 -9 -34 -9 -48 0 -14 -7 -35 -15 -48 -9
-13 -22 -52 -29 -87 -12 -59 -49 -187 -81 -284 -17 -52 -35 -152 -35 -194 0
-18 -5 -42 -12 -54 -7 -12 -15 -47 -19 -77 -29 -243 -59 -349 -112 -397 -12
-11 -62 -39 -112 -62 -49 -23 -103 -49 -118 -57 -64 -36 -83 -44 -99 -44 -9 0
-20 -4 -23 -10 -3 -6 -18 -10 -32 -10 -25 0 -25 2 -21 50 6 59 -8 78 -17 23
-3 -21 -13 -49 -21 -63 -8 -14 -22 -40 -31 -57 -13 -25 -23 -33 -44 -33 -14 0
-32 -7 -39 -14 -6 -8 -31 -23 -56 -32 -24 -9 -44 -21 -44 -25 0 -5 -4 -9 -10
-9 -18 0 -240 -111 -240 -120 0 -6 -7 -10 -16 -10 -8 0 -34 -10 -57 -22 -23
-12 -54 -27 -68 -35 -15 -7 -44 -22 -65 -32 -73 -37 -130 -61 -142 -61 -7 0
-12 -3 -12 -8 0 -4 -12 -12 -27 -19 -16 -6 -52 -22 -80 -34 -29 -13 -53 -26
-53 -31 0 -4 -7 -8 -16 -8 -9 0 -28 -8 -42 -19 -15 -10 -52 -29 -82 -42 -30
-12 -64 -29 -75 -36 -11 -7 -28 -13 -38 -13 -10 0 -55 -22 -101 -50 -46 -27
-86 -50 -91 -50 -10 0 -79 -33 -85 -41 -3 -3 -27 -16 -55 -28 -27 -12 -58 -26
-67 -31 -10 -6 -24 -10 -32 -10 -7 0 -19 -7 -26 -15 -7 -8 -21 -15 -31 -15 -9
0 -24 -6 -31 -14 -8 -7 -24 -17 -36 -20 l-22 -7 0 -3105 0 -3104 554 0 c305 0
556 4 558 8 6 15 58 24 56 10 -2 -9 14 -14 49 -16 45 -3 59 1 97 27 25 17 49
31 54 31 5 0 17 9 26 19 10 11 31 23 47 26 16 4 29 10 29 15 0 5 15 13 34 20
19 6 44 20 57 30 12 11 30 20 41 20 10 0 18 5 18 10 0 6 6 10 14 10 8 0 21 6
28 13 7 7 51 35 98 61 47 26 108 61 135 77 28 16 60 35 73 41 12 6 22 15 22
20 0 4 8 8 18 8 10 0 22 4 27 9 6 4 42 25 80 46 138 75 150 82 185 103 19 12
43 25 53 28 9 4 17 10 17 15 0 5 6 9 14 9 8 0 21 6 28 13 7 7 34 24 61 37 26
13 47 27 47 32 0 4 6 8 14 8 16 0 107 46 161 82 45 30 114 69 225 128 110 59
165 92 168 101 2 5 8 9 13 9 5 0 38 18 74 40 36 22 69 40 74 40 5 0 11 3 13 8
4 9 91 52 107 52 6 0 11 5 11 10 0 6 8 10 19 10 10 0 24 7 31 15 7 8 17 15 22
15 5 0 16 6 23 13 35 31 45 37 60 37 8 0 15 3 15 8 0 4 16 16 35 26 30 16 37
17 52 5 29 -22 33 -33 18 -42 -9 -5 -15 -23 -15 -46 0 -21 -3 -41 -7 -45 -4
-3 -8 -13 -9 -20 -1 -7 -5 -23 -9 -35 -3 -11 -3 -26 1 -33 10 -16 42 76 43
124 1 25 5 37 14 35 8 -1 13 15 15 51 2 28 7 52 12 52 5 0 12 17 16 38 8 47
52 172 66 190 7 7 15 35 18 60 4 26 17 82 29 124 11 43 21 95 21 117 0 22 4
41 10 43 10 3 23 57 40 168 6 36 15 67 20 68 6 2 10 19 10 38 0 20 5 45 11 56
6 11 15 44 19 72 4 28 16 83 25 121 9 39 21 95 25 125 5 30 13 63 19 75 15 30
33 112 38 175 3 30 9 59 14 65 5 5 9 27 9 50 0 22 6 65 14 95 8 30 16 80 18
111 3 30 8 60 11 66 6 10 16 97 31 273 2 30 0 75 -6 100 -13 59 -58 227 -79
296 -5 17 -9 40 -9 51 0 11 -7 34 -15 49 -8 16 -15 38 -15 49 0 11 -7 29 -15
39 -8 11 -15 28 -15 37 0 10 -3 19 -7 21 -11 4 -43 67 -43 84 0 8 -4 14 -10
14 -5 0 -12 17 -16 38 -4 20 -10 42 -15 47 -4 6 -15 41 -25 78 -9 37 -21 67
-26 67 -6 0 -8 7 -5 15 4 8 2 17 -3 20 -6 4 -10 16 -10 28 0 12 -11 42 -25 66
-14 23 -25 48 -25 55 0 6 -6 22 -13 36 -7 14 -21 52 -31 85 -10 33 -22 64 -27
70 -5 5 -9 21 -9 35 0 14 -7 35 -15 46 -8 10 -15 26 -15 35 0 15 -47 120 -76
169 -8 14 -28 54 -45 90 -58 124 -74 155 -97 189 -12 19 -22 42 -22 53 0 10
-7 21 -15 24 -8 4 -15 14 -15 24 0 11 -4 21 -9 24 -5 3 -12 18 -16 33 -3 15
-10 30 -13 33 -4 3 -16 21 -26 40 -30 54 -100 149 -111 149 -6 1 -16 15 -23
31 -8 17 -19 36 -25 43 -19 20 -34 47 -67 114 -26 54 -30 73 -30 147 0 82 20
156 42 156 4 0 8 5 8 12 0 10 56 105 70 118 13 12 40 73 40 90 0 10 7 20 15
24 8 3 15 13 15 21 0 27 49 198 66 232 29 57 147 84 177 41 13 -18 16 -19 16
-7 1 9 8 19 16 23 8 3 15 14 15 24 0 10 7 27 15 38 8 10 15 28 15 40 0 11 7
29 15 40 8 10 15 29 15 42 0 12 4 22 9 22 5 0 12 15 16 33 25 117 64 186 115
203 70 23 68 35 68 -353 0 -242 3 -357 11 -377 7 -16 14 -66 17 -110 3 -45 12
-103 19 -131 8 -27 20 -77 29 -110 27 -107 50 -180 59 -186 5 -4 22 -51 38
-105 16 -55 34 -101 39 -102 6 -2 10 -13 10 -25 0 -12 5 -29 10 -37 7 -12 10
-8 10 15 0 44 -31 165 -41 159 -5 -3 -9 15 -9 39 0 59 -10 108 -21 101 -5 -3
-9 16 -9 42 0 25 -7 85 -16 133 -30 169 -34 198 -34 273 0 41 7 97 15 124 8
27 15 84 15 126 0 53 5 88 18 112 22 45 32 45 32 0 0 -20 6 -48 14 -62 8 -15
18 -36 22 -47 6 -15 9 -8 12 28 2 27 -1 54 -6 60 -5 7 -13 28 -17 47 -4 19
-12 38 -18 41 -12 8 -10 122 2 164 5 17 12 62 16 100 15 173 82 293 198 355
72 38 102 56 121 73 11 9 23 17 26 17 4 0 7 7 7 15 0 8 -4 15 -9 15 -4 0 -8
11 -8 25 0 30 72 111 106 119 13 4 24 11 24 16 0 6 16 10 35 10 28 0 37 -5 50
-30 19 -37 19 -77 0 -96 -19 -20 -19 -29 2 -49 11 -12 20 -47 27 -111 9 -87 8
-96 -12 -137 -12 -24 -22 -51 -22 -59 0 -8 -6 -20 -12 -26 -12 -12 -23 -57
-48 -197 -5 -27 -13 -71 -19 -96 -13 -60 9 -209 35 -230 8 -6 14 -17 14 -23 0
-7 25 -62 55 -123 30 -62 55 -117 55 -122 0 -11 4 -20 33 -79 9 -19 17 -39 17
-46 0 -7 17 -45 38 -83 22 -39 42 -87 45 -108 4 -21 11 -41 17 -45 7 -4 5 -17
-5 -38 -11 -21 -13 -37 -7 -48 7 -13 11 -11 20 13 6 15 14 42 17 60 3 17 13
37 21 44 8 6 14 17 14 24 0 7 7 18 15 25 8 7 15 26 15 42 0 17 7 53 16 82 60
192 65 246 46 467 -14 150 -40 327 -52 350 -6 10 -10 54 -10 98 0 44 -4 83
-10 86 -12 7 -14 152 -2 157 11 5 42 64 42 81 0 9 5 17 11 19 6 2 30 52 53
112 51 128 63 143 139 179 25 11 62 17 108 17 41 0 91 7 118 17 28 9 58 14 73
10 25 -7 26 -10 23 -60 -5 -68 -19 -137 -32 -162 -6 -11 -17 -40 -24 -65 -7
-25 -21 -62 -31 -82 -10 -21 -18 -51 -18 -68 0 -16 -4 -30 -10 -30 -5 0 -10
-8 -10 -19 0 -10 -7 -35 -15 -54 -19 -45 -19 -139 0 -192 8 -22 15 -57 15 -78
0 -22 6 -62 14 -90 7 -29 19 -90 26 -137 7 -47 18 -98 25 -115 15 -36 31 -98
59 -230 18 -81 32 -117 73 -185 61 -102 103 -186 103 -206 0 -8 5 -14 10 -14
6 0 10 -11 10 -24 0 -14 5 -28 10 -31 6 -4 8 -11 5 -16 -4 -5 -2 -9 3 -9 5 0
16 -17 25 -37 31 -72 67 -170 67 -180 0 -6 7 -16 15 -23 8 -7 15 -25 15 -41 0
-16 4 -29 10 -29 5 0 12 -15 15 -33 4 -18 15 -39 26 -45 18 -11 21 -9 34 21 8
19 19 65 25 103 19 116 33 169 60 224 4 9 11 31 15 50 11 54 49 122 85 154 27
24 31 33 26 60 -4 17 -11 33 -16 34 -6 2 -10 9 -10 17 0 7 -7 18 -15 25 -8 7
-15 21 -15 31 0 11 -4 19 -10 19 -5 0 -10 5 -10 11 0 6 -6 25 -13 42 -48 113
-77 231 -72 287 2 19 4 52 4 72 1 34 3 37 23 29 12 -4 31 -23 40 -40 10 -18
31 -46 47 -63 24 -26 38 -32 88 -36 35 -3 61 -10 66 -19 5 -7 12 -11 18 -8 5
4 9 -2 9 -12 0 -10 16 -36 35 -58 82 -95 113 -130 153 -174 24 -25 48 -55 53
-66 5 -11 19 -35 30 -54 15 -26 19 -44 15 -70 -4 -20 -10 -74 -14 -121 -5 -47
-12 -91 -16 -98 -4 -7 -12 -37 -16 -65 -5 -29 -18 -97 -29 -151 -16 -73 -22
-145 -24 -270 -2 -94 -8 -182 -14 -196 -13 -29 -23 -70 -54 -205 -12 -55 -26
-104 -30 -109 -5 -6 -9 -27 -9 -48 0 -21 -4 -38 -9 -38 -12 0 -48 -198 -56
-313 -3 -32 -11 -84 -19 -115 -8 -31 -17 -91 -21 -132 -3 -41 -10 -88 -15
-105 -31 -108 -41 -154 -38 -175 l4 -25 12 27 c6 14 15 29 20 32 6 3 13 34 17
68 4 35 12 66 17 69 5 3 11 33 12 65 2 32 6 66 9 74 4 8 8 58 9 110 3 90 4 95
25 98 16 2 26 -4 33 -20 6 -13 19 -37 29 -54 10 -17 24 -53 30 -80 13 -52 14
-57 60 -233 23 -90 31 -146 35 -258 7 -149 11 -173 30 -173 34 0 37 36 38 418
0 207 2 380 5 385 6 10 43 -11 43 -24 0 -21 314 -339 335 -339 8 0 15 -3 15
-7 0 -14 137 -143 151 -143 5 0 9 -7 9 -15 0 -8 5 -15 12 -15 6 0 33 -18 59
-40 26 -22 50 -40 54 -40 3 0 16 -11 29 -25 13 -14 26 -25 30 -25 10 0 130
-92 134 -102 2 -4 9 -8 16 -8 7 0 26 -11 42 -25 58 -50 104 -17 49 35 -14 13
-25 29 -25 37 0 7 -4 13 -9 13 -5 0 -12 8 -15 18 -9 26 -31 60 -55 88 -11 13
-21 29 -21 34 0 6 -6 13 -14 16 -7 3 -22 21 -32 40 -10 19 -22 34 -27 34 -4 0
-6 4 -2 9 3 6 0 13 -8 18 -13 9 -38 57 -44 86 -2 15 0 16 20 5 12 -7 31 -22
42 -34 12 -11 36 -24 54 -27 19 -4 41 -15 50 -25 21 -22 133 -82 155 -82 9 0
16 -4 16 -8 0 -10 135 -74 195 -93 22 -7 68 -23 102 -36 34 -12 68 -23 76 -23
8 0 28 -7 43 -15 16 -8 41 -15 57 -15 15 0 27 -4 27 -8 0 -8 41 -18 161 -42
26 -4 55 -13 65 -18 44 -22 98 -35 102 -23 2 6 10 11 18 11 30 0 10 29 -92
135 -57 61 -112 122 -122 137 -9 16 -20 28 -24 28 -4 0 -8 4 -8 10 0 14 -33
50 -46 50 -13 0 -25 35 -16 44 11 11 58 6 78 -9 10 -8 29 -15 41 -15 12 0 28
-7 37 -15 8 -8 31 -15 50 -15 19 0 70 -11 112 -25 42 -14 86 -25 98 -25 11 0
34 -7 50 -15 15 -8 40 -15 55 -15 15 0 32 -5 37 -10 15 -15 199 -37 424 -50
17 -1 20 -3 10 -8 -8 -4 -15 -13 -16 -19 -1 -7 -2 -22 -2 -33 -1 -11 -14 -26
-29 -34 -56 -30 -327 -297 -413 -407 -59 -76 -89 -110 -211 -249 -21 -25 -46
-55 -55 -67 -8 -13 -21 -23 -29 -23 -7 0 -16 -8 -20 -19 -7 -23 -95 -98 -121
-102 -10 -2 -35 9 -55 24 -20 15 -41 27 -47 27 -7 0 -12 5 -12 11 0 5 -21 29
-47 52 -26 23 -54 49 -63 57 -8 9 -37 31 -63 49 -26 19 -47 38 -47 43 0 4 -6
8 -14 8 -8 0 -27 12 -43 27 -15 16 -48 44 -72 63 -24 19 -52 43 -62 53 -11 9
-22 17 -26 17 -7 0 -22 7 -166 75 -59 28 -84 35 -107 30 -17 -4 -30 -10 -30
-13 1 -15 28 -42 43 -42 9 0 18 -4 22 -9 3 -5 20 -13 37 -17 36 -7 36 -8 128
-54 64 -32 172 -106 178 -122 2 -4 9 -8 16 -8 7 0 44 -31 82 -70 38 -38 75
-70 82 -70 17 0 7 -40 -14 -56 -8 -6 -14 -20 -14 -32 0 -11 -6 -23 -12 -25 -7
-3 -4 -6 7 -6 11 0 31 8 45 19 14 11 36 20 49 20 23 0 86 -36 119 -67 7 -7 19
-13 27 -13 7 0 15 -9 18 -19 5 -20 -12 -51 -48 -88 -11 -11 -38 -42 -60 -69
-22 -26 -57 -64 -77 -84 -21 -19 -38 -39 -38 -44 0 -5 -33 -44 -72 -85 -40
-42 -92 -99 -115 -126 -23 -28 -60 -70 -82 -93 -23 -24 -41 -48 -41 -53 0 -5
-7 -9 -15 -9 -8 0 -15 -5 -15 -11 0 -7 -10 -21 -22 -33 -13 -12 -57 -62 -98
-111 -41 -49 -88 -101 -105 -115 -58 -49 -175 -169 -175 -180 0 -5 -6 -10 -12
-10 -7 0 -26 -14 -43 -30 -16 -17 -39 -38 -49 -48 -11 -9 -41 -38 -68 -64 -43
-42 -69 -58 -143 -88 -11 -5 -51 -16 -90 -25 -38 -9 -78 -21 -87 -26 -10 -5
-23 -9 -29 -9 -6 0 -25 -7 -42 -15 -50 -22 -120 -45 -143 -45 -11 0 -29 -7
-40 -15 -10 -8 -29 -15 -41 -15 -13 0 -23 -4 -23 -9 0 -5 -14 -12 -30 -16 -17
-4 -30 -10 -30 -15 0 -4 -17 -11 -37 -15 -21 -4 -40 -10 -43 -14 -3 -4 -36
-20 -75 -35 -38 -15 -83 -35 -100 -43 -16 -9 -47 -25 -67 -35 -21 -10 -38 -23
-38 -28 0 -6 -5 -10 -11 -10 -6 0 -25 -11 -43 -25 -18 -14 -38 -25 -44 -25
-18 0 -82 -33 -82 -42 0 -4 -7 -8 -16 -8 -30 0 -138 -74 -200 -137 -33 -34
-59 -65 -56 -68 3 -3 -1 -5 -10 -5 -8 0 -26 -9 -39 -21 -14 -12 -31 -18 -44
-15 -11 3 -23 6 -27 6 -5 0 -8 23 -8 50 0 28 -4 50 -10 50 -6 0 -10 -26 -10
-58 0 -35 -6 -66 -15 -79 -9 -12 -14 -35 -13 -51 2 -33 -20 -93 -39 -105 -7
-5 -11 -12 -8 -18 4 -5 0 -9 -8 -9 -12 0 -57 -51 -57 -65 0 -3 -11 -16 -25
-29 -13 -13 -22 -26 -19 -29 4 -3 -3 -18 -13 -34 -11 -15 -26 -44 -33 -63 -7
-19 -19 -42 -25 -50 -18 -23 -25 -48 -18 -66 5 -13 8 -12 24 5 11 11 19 31 19
43 0 13 8 35 17 48 10 14 25 39 33 55 29 55 45 79 72 110 16 16 28 34 28 39 0
4 11 17 25 28 14 11 25 26 25 34 0 8 3 14 8 14 10 0 62 46 62 56 0 9 58 64
121 114 24 19 60 51 81 70 59 57 116 95 223 149 22 11 36 21 30 21 -11 0 80
60 92 60 3 0 14 7 23 15 9 8 25 16 36 18 31 6 85 33 79 39 -3 3 16 9 42 13 26
4 62 16 78 28 17 12 48 31 70 42 22 11 42 22 45 25 9 9 163 62 195 68 17 2 35
8 40 11 6 4 37 16 70 26 33 10 69 21 80 26 11 4 38 10 60 14 22 3 78 17 125
30 96 27 234 55 268 55 12 0 22 5 22 10 0 6 13 10 28 10 52 0 162 44 204 81
10 9 59 32 109 53 51 20 98 44 106 52 8 8 21 14 29 14 8 0 14 5 14 10 0 6 6
10 13 10 16 0 172 63 239 97 14 7 36 13 49 13 12 0 19 3 16 7 -10 9 171 94
213 99 46 6 114 26 120 36 3 4 30 12 60 17 98 18 155 31 175 40 22 10 127 27
225 36 78 8 158 25 320 69 30 8 85 18 123 21 37 4 67 11 67 16 0 5 21 9 48 9
26 0 65 7 87 15 22 8 57 14 77 15 20 0 40 4 43 10 3 5 27 10 52 10 26 0 54 6
62 13 9 8 54 19 101 27 47 7 100 19 119 26 18 8 45 14 60 14 14 0 48 7 75 15
27 8 63 15 79 15 17 0 62 11 101 24 39 13 109 32 156 41 95 19 130 27 210 49
30 8 72 17 93 20 21 4 46 10 55 15 9 4 35 11 57 15 42 8 85 20 148 42 20 8 51
14 67 14 16 0 32 5 35 10 3 6 16 10 28 10 29 0 147 37 164 52 7 6 13 14 13 18
0 12 -57 33 -69 25 -6 -3 -32 -10 -59 -15 -26 -4 -72 -17 -102 -29 -30 -12
-71 -21 -90 -21 -19 0 -44 -7 -54 -15 -11 -8 -32 -15 -47 -15 -14 0 -46 -7
-69 -15 -23 -8 -55 -15 -71 -15 -16 0 -29 -4 -29 -8 0 -4 -28 -13 -62 -20 -35
-7 -86 -19 -114 -27 -28 -8 -73 -18 -100 -21 -27 -3 -58 -9 -69 -14 -11 -5
-60 -18 -110 -30 -49 -12 -117 -28 -150 -36 -33 -8 -87 -19 -120 -25 -32 -5
-64 -14 -69 -19 -6 -6 -28 -10 -51 -10 -23 0 -50 -7 -61 -15 -10 -8 -37 -15
-60 -15 -22 0 -44 -3 -48 -8 -4 -4 -65 -17 -134 -29 -371 -64 -490 -87 -557
-108 -55 -18 -203 -24 -209 -8 -4 10 15 23 106 70 15 8 30 18 33 24 4 5 13 9
21 9 8 0 32 11 54 25 22 14 46 25 54 25 8 0 21 6 28 13 17 15 47 32 113 65 28
14 54 31 58 39 4 7 13 13 20 13 16 1 239 157 257 180 3 4 12 10 20 14 28 13
55 31 122 78 37 27 71 48 77 48 5 0 23 11 39 25 38 32 132 95 141 95 4 0 33
18 65 40 31 22 59 40 62 40 3 0 17 11 32 25 15 14 31 25 36 25 5 0 47 25 92
55 46 30 88 55 94 55 6 0 37 17 68 37 31 21 68 43 82 51 14 7 36 24 50 36 23
22 72 50 223 130 32 17 67 39 77 48 11 10 22 18 25 18 8 0 84 34 150 67 28 14
70 32 95 40 25 8 63 24 84 34 22 11 45 19 52 19 7 0 14 4 16 8 4 10 85 52 100
52 12 0 103 40 150 65 14 8 35 15 45 15 10 0 27 6 38 14 11 7 36 17 55 21 19
4 41 11 50 16 21 11 104 29 134 29 14 0 26 5 26 10 0 6 6 10 14 10 14 0 79 18
167 45 26 8 52 15 59 15 7 0 26 6 43 14 18 7 73 26 122 41 50 16 96 33 104 39
8 6 30 16 50 21 31 9 36 15 39 43 3 29 1 32 -24 32 -15 0 -35 -6 -43 -14 -9
-7 -37 -21 -63 -31 -27 -10 -48 -22 -48 -26 0 -5 -13 -9 -28 -9 -16 0 -37 -7
-48 -15 -10 -8 -29 -15 -40 -15 -12 0 -35 -7 -50 -15 -16 -8 -37 -15 -46 -15
-9 0 -20 -4 -23 -10 -8 -12 -135 -13 -135 -1 0 5 -13 17 -28 28 -26 17 -115
110 -170 179 -50 62 -141 163 -229 254 -231 238 -263 276 -263 306 0 25 11 30
90 38 213 20 300 31 300 38 0 4 64 8 143 8 133 0 145 -2 186 -25 23 -14 51
-25 60 -25 9 0 24 -9 34 -20 9 -11 23 -17 32 -14 10 4 15 0 15 -11 0 -9 4 -14
9 -10 5 3 24 -8 42 -24 18 -17 45 -33 61 -36 15 -4 28 -11 28 -16 0 -5 9 -9
19 -9 10 0 21 -7 25 -15 3 -8 12 -15 19 -15 8 0 22 -9 32 -20 10 -11 27 -23
39 -26 11 -4 25 -13 31 -20 5 -8 25 -17 43 -20 28 -6 32 -4 32 14 0 11 -7 22
-15 26 -9 3 -15 19 -15 41 0 24 4 35 15 35 8 0 15 5 15 10 0 6 -7 10 -15 10
-8 0 -15 -4 -15 -8 0 -13 -68 -42 -85 -36 -18 7 -20 56 -2 87 6 12 30 39 51
59 38 37 38 38 14 38 -17 0 -39 -16 -73 -55 -27 -30 -56 -55 -64 -55 -12 0
-79 36 -91 49 -7 9 -43 30 -60 37 -44 17 -70 34 -98 61 -22 23 -27 23 -249 23
-126 0 -255 -5 -288 -10 -117 -21 -221 -33 -315 -37 l-95 -4 -39 36 c-22 19
-42 35 -45 35 -3 0 -17 17 -31 38 -14 20 -40 53 -57 72 -18 19 -33 39 -33 43
0 5 -10 23 -23 40 -12 18 -28 41 -35 52 -7 11 -21 34 -32 50 -14 21 -16 31 -7
33 6 2 22 8 34 14 18 9 33 6 80 -19 74 -38 121 -30 78 13 -22 23 -20 113 3
120 37 12 89 40 137 74 50 35 143 89 202 115 17 8 34 19 38 25 3 5 13 10 22
10 9 0 31 11 49 25 18 14 38 25 44 25 6 0 18 7 26 15 9 8 24 15 34 15 11 0 23
6 27 13 4 7 25 21 46 31 20 9 37 21 37 25 0 5 8 11 18 15 9 3 25 10 35 16 39
23 54 31 87 48 19 9 37 20 38 25 2 4 27 18 55 32 29 14 70 36 92 50 22 14 47
28 55 32 8 3 33 18 55 32 22 14 58 35 80 45 22 11 49 28 61 38 11 10 45 31 75
47 183 97 179 94 179 123 0 26 -3 28 -37 28 l-38 1 24 19 c13 11 29 20 37 20
12 0 14 74 14 460 0 253 -3 460 -6 460 -3 0 -32 -13 -66 -30 -33 -16 -68 -30
-78 -30 -10 0 -20 -7 -24 -15 -3 -8 -17 -15 -32 -15 -19 0 -25 -4 -20 -15 3
-10 -1 -18 -12 -22 -9 -4 -32 -19 -50 -35 -18 -15 -39 -28 -47 -28 -8 0 -15
-4 -15 -9 0 -5 -9 -11 -20 -14 -13 -3 -20 0 -20 9 0 16 100 94 121 94 8 0 25
12 38 25 13 14 30 25 38 25 8 0 31 13 51 29 20 16 61 39 90 52 l52 24 0 258 0
259 -112 -5 c-125 -6 -191 -16 -257 -41 -53 -20 -101 -21 -101 -3 0 20 33 47
58 47 12 0 22 4 22 9 0 5 25 15 55 22 29 6 53 16 52 22 -3 13 53 28 83 22 14
-3 64 -7 113 -9 l87 -4 0 2209 0 2209 -280 0 -280 0 0 -178z m-6453 -4178 c-3
-3 -12 -4 -19 -1 -8 3 -5 6 6 6 11 1 17 -2 13 -5z m718 -1148 c65 -67 45 -93
-34 -44 -17 10 -21 23 -20 63 0 27 3 45 5 38 3 -6 25 -32 49 -57z m6208 -512
c4 -4 -15 -17 -42 -29 -27 -13 -52 -28 -55 -34 -4 -6 -16 -11 -28 -11 -17 0
-19 2 -7 16 14 17 97 63 115 64 6 0 14 -3 17 -6z m-153 -84 c0 -5 -7 -10 -15
-10 -8 0 -15 5 -15 10 0 6 7 10 15 10 8 0 15 -4 15 -10z m-167 -106 c-63 -59
-129 -82 -156 -55 -8 8 -6 11 10 11 11 0 38 12 59 26 79 54 139 66 87 18z
m-158 -84 c-3 -5 -13 -10 -21 -10 -8 0 -12 5 -9 10 3 6 13 10 21 10 8 0 12 -4
9 -10z m-45 -30 c0 -13 -28 -25 -38 -16 -3 4 0 11 8 16 20 13 30 12 30 0z
m-180 -100 c0 -5 -5 -10 -11 -10 -5 0 -7 5 -4 10 3 6 8 10 11 10 2 0 4 -4 4
-10z m-150 -79 c0 -10 -24 -21 -46 -21 -20 0 -17 18 4 23 29 8 42 7 42 -2z
m-245 -141 c-3 -5 -13 -10 -21 -10 -8 0 -14 5 -14 10 0 6 9 10 21 10 11 0 17
-4 14 -10z m-683 -247 c15 -26 38 -68 50 -93 13 -25 26 -46 31 -48 4 -2 7 -10
7 -18 0 -8 4 -14 9 -14 5 0 12 -8 15 -17 3 -10 26 -40 50 -68 24 -27 43 -52
41 -55 -4 -6 66 -85 152 -171 l46 -47 -20 -21 c-11 -12 -37 -25 -57 -28 -33
-5 -41 -2 -72 28 -19 18 -34 39 -34 46 0 7 -5 13 -11 13 -5 0 -21 24 -34 54
-13 30 -28 57 -34 60 -6 4 -28 43 -51 88 -22 45 -45 87 -50 93 -5 6 -11 20
-13 31 -5 27 -18 55 -37 84 -36 54 -55 85 -56 95 -1 6 -2 16 -3 23 0 7 -5 10
-11 7 -11 -7 -13 15 -4 39 5 13 10 11 32 -9 14 -13 38 -46 54 -72z m-576 17
c8 0 17 -7 20 -15 4 -8 13 -15 20 -15 8 0 17 -7 20 -15 4 -8 10 -15 15 -15 12
0 30 -14 82 -62 21 -21 42 -38 46 -38 4 0 29 -22 57 -48 27 -27 69 -62 94 -79
61 -42 90 -68 90 -82 0 -6 7 -11 15 -11 8 0 19 -9 25 -20 6 -11 15 -18 20 -15
6 3 20 -3 32 -14 12 -12 27 -21 34 -21 7 0 21 -10 31 -23 10 -13 26 -27 35
-33 9 -5 46 -35 83 -68 61 -53 65 -60 51 -75 -9 -10 -48 -28 -88 -41 -40 -12
-77 -27 -82 -31 -6 -5 -27 -9 -49 -9 -21 0 -36 -4 -33 -9 6 -8 -17 -16 -154
-56 -94 -27 -97 -27 -114 0 -9 13 -16 29 -16 35 0 6 -10 26 -23 43 -46 66 -79
132 -95 192 -19 74 -35 140 -43 180 -17 86 -31 135 -38 135 -5 0 -11 22 -14
49 -3 27 -10 58 -15 68 -5 10 -15 32 -23 48 -8 17 -12 41 -10 55 3 18 5 20 8
8 3 -10 11 -18 19 -18z m1100 -659 c9 -10 24 -17 33 -15 10 3 26 -11 43 -36
15 -22 35 -40 43 -40 8 0 15 -4 15 -10 0 -5 8 -18 18 -29 28 -31 112 -121 206
-224 48 -53 96 -99 106 -102 10 -3 28 -25 39 -48 12 -23 21 -38 21 -33 0 5 10
-4 22 -20 12 -16 28 -33 35 -37 7 -4 13 -15 13 -22 0 -8 4 -15 8 -15 4 0 31
-22 60 -49 64 -60 69 -91 17 -91 -19 0 -35 4 -35 10 0 5 -3 9 -7 8 -15 -3 -43
14 -43 26 0 6 -13 26 -30 44 -16 18 -30 35 -30 37 0 7 -92 95 -99 95 -3 0 -13
9 -21 21 -8 11 -27 27 -42 35 -16 8 -28 20 -28 27 -1 6 -23 37 -50 67 -28 30
-50 58 -50 63 0 4 -6 7 -14 7 -8 0 -17 8 -20 18 -7 22 -31 47 -76 82 -18 14
-46 37 -61 53 -16 15 -32 27 -36 27 -5 0 -24 19 -43 42 -19 23 -45 51 -57 63
-39 38 -29 57 35 64 7 0 19 -7 28 -18z m-72 -117 c57 -54 119 -113 137 -130
19 -17 63 -63 99 -103 36 -39 69 -71 74 -71 10 0 56 -48 56 -59 0 -4 25 -31
55 -59 30 -29 55 -57 55 -62 0 -6 7 -10 15 -10 8 0 15 -4 15 -9 0 -5 21 -33
48 -62 26 -29 54 -60 62 -69 8 -9 21 -26 27 -38 11 -18 9 -24 -14 -41 -14 -12
-33 -21 -41 -21 -14 0 -79 -17 -162 -42 -19 -6 -80 -32 -136 -59 -55 -26 -118
-54 -140 -62 -21 -8 -70 -27 -109 -41 -38 -15 -83 -30 -100 -32 -78 -13 -282
-90 -313 -117 -17 -14 -72 -41 -142 -67 -19 -7 -42 -18 -50 -24 -8 -6 -33 -20
-55 -31 -22 -11 -42 -22 -45 -25 -14 -15 -61 -38 -112 -55 -32 -11 -58 -23
-58 -27 0 -22 -51 -5 -82 28 -59 63 -68 74 -68 82 0 4 -17 26 -37 48 -21 23
-45 52 -53 64 -8 12 -21 28 -27 36 -7 7 -13 20 -13 28 0 9 -4 16 -9 16 -5 0
-20 17 -32 38 -13 20 -30 45 -39 55 -16 19 -63 96 -83 137 -6 14 -22 36 -34
50 -13 14 -23 30 -23 36 0 7 -7 14 -15 18 -8 3 -21 18 -27 33 -7 15 -18 34
-25 41 -7 7 -13 31 -13 52 0 31 6 43 39 71 86 76 151 119 224 151 15 7 27 16
27 20 0 4 7 8 15 8 9 0 27 11 42 24 14 13 47 34 74 47 27 12 49 26 49 31 0 4
6 8 14 8 8 0 28 11 44 25 17 14 35 25 41 25 7 0 22 7 34 14 12 8 54 26 92 39
39 14 95 35 125 47 30 13 66 27 80 33 14 5 37 16 52 23 14 8 37 14 51 14 25 0
102 29 79 30 -7 0 -10 5 -7 10 3 6 35 10 69 10 37 0 76 6 92 15 16 8 39 14 52
12 12 -2 69 -48 126 -103z m-1758 67 c18 -17 226 -101 251 -101 14 0 39 -6 56
-14 50 -22 111 -34 271 -56 174 -23 194 -18 141 35 -19 18 -43 36 -55 40 -12
4 -20 15 -20 28 0 21 4 22 60 19 33 -2 60 -8 60 -13 0 -5 15 -9 34 -9 18 0 39
-7 46 -15 7 -8 25 -15 40 -15 16 0 30 -7 34 -15 3 -8 12 -15 21 -15 23 0 18
-17 -7 -23 -47 -11 -154 -60 -178 -82 -14 -12 -32 -25 -40 -29 -8 -4 -24 -12
-35 -19 -11 -7 -43 -25 -70 -41 -28 -16 -59 -37 -70 -46 -11 -10 -49 -30 -84
-44 -68 -27 -111 -60 -111 -84 0 -7 -5 -12 -12 -10 -6 2 -30 -13 -52 -34 -23
-21 -49 -38 -58 -38 -10 0 -18 -6 -18 -14 0 -23 -59 -47 -97 -40 -18 3 -33 10
-33 15 0 5 -7 9 -15 9 -8 0 -15 4 -15 9 0 12 -105 121 -116 121 -9 0 -29 27
-33 45 -1 6 -11 13 -21 17 -10 4 -26 20 -34 36 -8 16 -36 50 -61 76 -39 41
-55 66 -41 66 2 0 22 -17 45 -37 22 -21 60 -56 85 -78 25 -22 45 -45 46 -51 0
-7 11 -15 24 -18 14 -3 27 -14 30 -24 7 -22 86 -89 119 -101 34 -13 61 -7 65
13 2 10 -13 52 -33 94 -73 152 -145 320 -145 341 0 6 -5 11 -11 11 -6 0 -8 9
-4 20 3 11 2 20 -3 20 -11 0 -23 40 -16 52 7 11 48 10 60 -1z m266 -688 c10
-9 18 -20 18 -25 0 -14 -38 -9 -55 8 -13 14 -14 19 -3 25 18 12 19 11 40 -8z
m48 -57 c0 -34 -14 -40 -35 -16 -16 18 -16 20 -2 20 10 0 17 5 17 10 0 6 5 10
10 10 6 0 10 -11 10 -24z m-82 -70 c34 -41 62 -78 62 -84 0 -6 6 -15 14 -19 7
-4 28 -35 45 -68 31 -58 56 -93 141 -201 22 -28 40 -56 40 -62 0 -6 11 -23 24
-39 38 -46 116 -188 116 -212 0 -26 -92 -119 -130 -133 -17 -5 -30 -14 -30
-18 0 -4 -16 -11 -35 -14 -19 -4 -35 -11 -35 -16 0 -6 -11 -10 -25 -10 -13 0
-28 -7 -32 -15 -7 -13 -35 -33 -122 -90 -8 -5 -52 -38 -97 -72 -46 -35 -85
-63 -87 -63 -7 0 -110 -68 -127 -84 -8 -7 -25 -19 -37 -25 -13 -6 -23 -16 -23
-22 0 -11 -49 -59 -59 -59 -4 0 -36 -25 -71 -55 -36 -30 -70 -55 -76 -55 -6 0
-21 -11 -34 -25 -13 -14 -32 -25 -42 -25 -10 0 -18 -7 -18 -15 0 -9 -9 -15
-21 -15 -11 0 -32 -9 -46 -20 -27 -21 -68 -26 -92 -11 -9 6 -12 20 -8 42 12
74 54 204 88 270 11 20 19 43 19 50 0 8 13 39 30 69 16 30 29 68 30 83 0 15 7
44 16 65 9 20 31 82 50 138 19 56 44 119 54 140 11 21 20 44 20 50 0 7 7 19
15 27 8 8 38 65 68 126 29 61 56 108 60 104 4 -3 7 3 7 15 0 11 5 24 11 27 5
4 15 17 20 28 5 12 20 40 34 62 13 22 30 54 38 71 8 17 20 35 26 38 6 4 11 16
11 26 0 10 11 31 24 47 12 15 25 33 27 40 8 24 64 83 79 82 8 0 43 -33 78 -73z
m109 -8 c-3 -7 -5 -2 -5 12 0 14 2 19 5 13 2 -7 2 -19 0 -25z m141 -175 c12
-18 22 -36 22 -40 0 -5 9 -14 20 -21 11 -7 20 -19 20 -27 0 -7 16 -26 35 -41
19 -14 35 -33 35 -40 0 -8 4 -14 9 -14 6 0 21 -18 34 -40 13 -22 26 -37 29
-34 4 3 9 -5 13 -18 4 -13 18 -36 31 -51 31 -36 76 -126 69 -137 -13 -20 -75
27 -75 57 0 7 -6 13 -13 13 -7 0 -18 8 -25 18 -55 80 -92 141 -92 151 0 6 -6
11 -14 11 -8 0 -18 13 -24 28 -5 16 -22 42 -37 58 -28 30 -65 95 -65 114 0 6
-7 18 -15 26 -8 9 -15 25 -15 37 0 21 0 21 18 1 9 -11 27 -34 40 -51z m-6428
-2587 c0 -3 -4 -8 -10 -11 -5 -3 -10 -1 -10 4 0 6 5 11 10 11 6 0 10 -2 10 -4z
m-80 -51 c0 -8 -4 -15 -10 -15 -5 0 -7 7 -4 15 4 8 8 15 10 15 2 0 4 -7 4 -15z
m-45 -35 c-3 -5 -13 -10 -21 -10 -8 0 -14 5 -14 10 0 6 9 10 21 10 11 0 17 -4
14 -10z m-103 -52 c-9 -9 -15 -9 -24 0 -9 9 -7 12 12 12 19 0 21 -3 12 -12z
m-92 -47 c0 -12 -54 -51 -69 -51 -20 0 -11 15 22 38 34 24 47 27 47 13z m-103
-57 c-3 -3 -12 -4 -19 -1 -8 3 -5 6 6 6 11 1 17 -2 13 -5z m-17 -34 c-20 -13
-47 -13 -55 0 -4 6 9 10 32 10 28 0 34 -3 23 -10z m-55 -30 c-3 -5 -17 -10
-31 -10 -14 0 -22 4 -19 10 3 6 17 10 31 10 14 0 22 -4 19 -10z m-160 -85
c-16 -14 -35 -25 -41 -25 -7 0 -14 -7 -18 -15 -3 -8 -16 -15 -30 -15 -14 0
-28 -4 -31 -10 -3 -5 -15 -10 -26 -10 -11 0 -17 5 -14 10 3 6 15 10 26 10 11
0 18 4 14 9 -3 5 11 15 30 21 19 6 38 17 42 25 5 7 17 15 28 18 44 11 49 6 20
-18z m-170 -95 c-3 -5 -11 -10 -17 -10 -6 0 -20 -7 -30 -17 -23 -20 -33 -12
-18 16 7 14 21 21 41 21 18 0 28 -4 24 -10z m-305 -164 c0 -3 -4 -8 -10 -11
-5 -3 -10 -1 -10 4 0 6 5 11 10 11 6 0 10 -2 10 -4z m-83 -52 c-3 -3 -12 -4
-19 -1 -8 3 -5 6 6 6 11 1 17 -2 13 -5z m-282 -164 c-3 -5 -15 -10 -26 -10
-10 0 -19 5 -19 10 0 6 12 10 26 10 14 0 23 -4 19 -10z m-40 -20 c3 -5 -1 -10
-9 -10 -8 0 -19 -7 -23 -15 -10 -17 -124 -76 -135 -69 -4 3 -8 -2 -8 -10 0 -8
-9 -17 -20 -21 -20 -6 -40 0 -40 14 0 9 59 31 86 32 10 0 13 3 7 6 -19 7 -16
23 5 23 10 0 23 5 28 10 15 15 77 49 91 49 6 1 15 -3 18 -9z m-225 -139 c0 -5
-8 -11 -17 -15 -10 -3 -36 -17 -58 -30 -22 -14 -46 -25 -53 -26 -8 0 -28 -10
-45 -22 -67 -49 -135 -66 -113 -29 9 14 85 51 106 51 13 0 17 5 14 14 -4 10 5
16 25 21 17 4 31 10 31 14 0 13 43 30 78 30 17 1 32 -3 32 -8z m-320 -161 c0
-5 -5 -10 -11 -10 -5 0 -7 5 -4 10 3 6 8 10 11 10 2 0 4 -4 4 -10z"/>
<path d="M0 11510 c0 -15 8 -22 29 -26 17 -4 32 -12 35 -20 3 -8 12 -14 21
-14 8 0 15 -3 15 -8 0 -10 57 -39 93 -46 15 -4 27 -11 27 -16 0 -6 7 -10 16
-10 8 0 22 -6 29 -12 35 -32 45 -38 60 -38 8 0 15 3 15 8 0 8 -12 16 -80 49
-25 12 -56 32 -70 45 -27 25 -49 39 -98 62 -18 8 -40 22 -48 31 -22 21 -44 19
-44 -5z"/>
<path d="M350 11310 c-8 -5 -6 -9 5 -14 24 -9 55 -7 55 3 0 12 -46 20 -60 11z"/>
<path d="M400 11276 c0 -10 66 -36 94 -37 17 -1 23 -3 13 -6 -28 -7 -9 -23 29
-23 47 0 43 14 -11 37 -25 10 -45 21 -45 26 0 4 -18 7 -40 7 -22 0 -40 -2 -40
-4z"/>
<path d="M586 11201 c-8 -12 49 -59 82 -68 15 -3 33 -12 40 -20 7 -7 20 -13
28 -13 27 0 14 17 -31 39 -25 12 -45 29 -45 37 0 22 -63 44 -74 25z"/>
<path d="M760 11086 c0 -10 28 -13 41 -5 10 6 7 9 -13 9 -16 0 -28 -2 -28 -4z"/>
<path d="M830 11060 c0 -6 7 -10 15 -10 8 0 15 2 15 4 0 2 -7 6 -15 10 -8 3
-15 1 -15 -4z"/>
<path d="M868 11033 c6 -2 18 -2 25 0 6 3 1 5 -13 5 -14 0 -19 -2 -12 -5z"/>
<path d="M1020 10956 c0 -6 61 -36 73 -36 6 0 2 9 -8 20 -15 17 -65 29 -65 16z"/>
<path d="M1130 10900 c-12 -8 -9 -10 13 -10 16 0 26 4 22 10 -8 12 -16 12 -35
0z"/>
<path d="M1165 10870 c3 -5 13 -10 21 -10 8 0 14 5 14 10 0 6 -9 10 -21 10
-11 0 -17 -4 -14 -10z"/>
<path d="M1320 10790 c0 -5 5 -10 10 -10 6 0 10 5 10 10 0 6 -4 10 -10 10 -5
0 -10 -4 -10 -10z"/>
<path d="M1515 10680 c3 -5 11 -10 16 -10 6 0 7 5 4 10 -3 6 -11 10 -16 10 -6
0 -7 -4 -4 -10z"/>
<path d="M2480 8849 c0 -5 5 -7 10 -4 6 3 10 8 10 11 0 2 -4 4 -10 4 -5 0 -10
-5 -10 -11z"/>
<path d="M4131 6602 c-1 -15 -5 -21 -12 -16 -7 4 -3 -11 9 -32 11 -21 25 -55
30 -74 l10 -35 1 35 c0 19 -8 60 -19 90 -11 34 -19 46 -19 32z"/>
<path d="M4181 6430 c0 -8 4 -24 9 -35 l9 -20 0 20 c0 11 -4 27 -9 35 -9 13
-10 13 -9 0z"/>
<path d="M4213 6335 c0 -22 2 -30 4 -17 2 12 2 30 0 40 -3 9 -5 -1 -4 -23z"/>
<path d="M3640 6298 c0 -7 5 -20 10 -28 8 -12 10 -11 10 7 0 12 -4 25 -10 28
-5 3 -10 0 -10 -7z"/>
<path d="M3671 6243 c-1 -23 4 -45 9 -48 12 -8 12 42 0 70 -7 16 -9 11 -9 -22z"/>
<path d="M4238 6230 c2 -22 9 -43 15 -47 7 -4 8 5 4 27 -4 18 -7 39 -7 46 0 8
-3 14 -8 14 -4 0 -6 -18 -4 -40z"/>
<path d="M3690 6158 c0 -7 7 -26 15 -42 9 -16 16 -51 17 -78 0 -33 7 -56 20
-71 l19 -22 -6 40 c-3 22 -8 61 -11 87 -3 26 -12 52 -20 59 -8 6 -14 18 -14
25 0 8 -4 14 -10 14 -5 0 -10 -6 -10 -12z"/>
<path d="M4260 6113 c0 -10 5 -25 10 -33 7 -11 10 -7 10 18 0 17 -4 32 -10 32
-5 0 -10 -8 -10 -17z"/>
<path d="M3774 5826 c8 -62 11 -67 18 -41 9 36 0 102 -16 108 -9 4 -9 -13 -2
-67z"/>
<path d="M4832 5800 c0 -19 2 -27 5 -17 2 9 2 25 0 35 -3 9 -5 1 -5 -18z"/>
<path d="M3803 5685 c0 -22 2 -30 4 -17 2 12 2 30 0 40 -3 9 -5 -1 -4 -23z"/>
<path d="M4101 5704 c0 -11 3 -14 6 -6 3 7 2 16 -1 19 -3 4 -6 -2 -5 -13z"/>
<path d="M4851 5695 c0 -11 4 -27 9 -35 9 -13 10 -13 9 0 0 8 -4 24 -9 35 l-9
20 0 -20z"/>
<path d="M12386 5009 c-19 -19 -19 -19 7 -19 20 0 27 5 27 20 0 25 -9 25 -34
-1z"/>
<path d="M6150 4109 c0 -11 -7 -27 -15 -35 -8 -9 -15 -23 -14 -32 0 -14 2 -14
6 -2 3 8 11 20 18 26 18 14 30 64 16 64 -6 0 -11 -9 -11 -21z"/>
<path d="M6017 3886 c-4 -15 -6 -31 -2 -34 10 -10 16 6 13 35 l-3 28 -8 -29z"/>
<path d="M5986 3811 c-4 -7 -5 -15 -2 -18 9 -9 19 4 14 18 -4 11 -6 11 -12 0z"/>
<path d="M5946 3765 c-10 -14 -15 -34 -13 -43 4 -14 6 -13 12 6 4 12 14 22 21
22 16 0 18 9 5 28 -6 10 -12 7 -25 -13z"/>
<path d="M5898 3675 c-14 -13 -29 -34 -33 -45 -3 -11 -11 -20 -16 -20 -5 0 -9
-7 -9 -15 0 -8 -4 -15 -10 -15 -5 0 -10 -11 -10 -24 0 -13 -18 -60 -40 -104
-22 -44 -40 -85 -40 -91 0 -6 -4 -11 -9 -11 -5 0 -14 -26 -20 -57 -41 -205
-46 -232 -73 -398 -8 -44 -17 -86 -21 -92 -4 -6 -10 -40 -13 -74 -3 -35 -8
-68 -12 -74 -4 -5 -10 -37 -14 -70 -3 -33 -11 -98 -16 -145 -12 -103 -24 -401
-15 -380 3 8 10 18 15 21 5 3 13 64 18 135 4 71 12 140 18 154 5 14 7 30 5 37
-8 22 37 86 76 110 23 13 41 28 41 32 0 5 12 11 28 14 15 3 48 22 74 41 26 20
53 36 60 36 8 0 19 5 26 12 12 12 102 63 192 110 25 13 47 25 50 28 13 13 70
40 83 40 9 0 17 3 19 8 2 4 24 18 51 32 26 13 47 28 47 32 0 5 4 8 10 8 11 0
102 60 112 75 4 6 8 6 8 2 0 -5 13 1 29 12 16 12 34 21 40 21 6 0 40 18 76 40
36 22 68 40 72 40 3 0 14 6 22 13 22 18 90 37 96 27 3 -5 20 -12 38 -16 17 -3
66 -24 107 -45 41 -20 102 -49 135 -64 33 -14 68 -30 77 -36 10 -5 28 -9 42
-9 13 0 29 -7 36 -15 7 -8 27 -17 46 -21 19 -3 34 -10 34 -14 0 -4 12 -10 28
-13 15 -2 41 -10 57 -15 57 -21 140 -41 194 -47 52 -7 87 2 117 30 6 6 32 28
58 50 26 22 54 52 62 67 8 16 21 28 29 28 15 0 39 35 33 49 -4 11 -68 -7 -68
-20 0 -6 -13 -22 -29 -37 -16 -15 -38 -43 -48 -62 -15 -27 -27 -36 -51 -38
-18 -2 -32 -8 -32 -14 0 -7 -14 -8 -37 -4 -21 3 -54 9 -73 12 -19 3 -49 12
-67 20 -17 8 -37 14 -45 14 -7 0 -22 7 -32 15 -11 8 -30 15 -43 15 -13 0 -23
5 -23 10 0 6 -10 10 -22 10 -49 0 -244 82 -428 179 -63 34 -80 41 -93 41 -9 0
-17 3 -19 8 -1 4 -23 17 -48 29 -25 13 -52 27 -60 32 -8 5 -35 17 -60 27 -25
9 -91 39 -147 66 -56 26 -106 48 -112 48 -6 0 -11 4 -11 9 0 5 -10 13 -22 16
-13 4 -49 20 -80 36 -32 17 -60 30 -63 29 -11 -1 -104 47 -182 93 -74 44 -89
60 -84 90 2 11 -2 9 -31 -18z m764 -508 c-12 -6 -22 -14 -22 -19 0 -13 -42
-47 -58 -48 -7 0 -30 -11 -50 -25 -20 -14 -45 -25 -55 -25 -10 0 -20 -7 -23
-15 -4 -8 -12 -15 -19 -15 -7 0 -18 -6 -24 -14 -7 -8 -27 -18 -44 -22 -18 -3
-40 -15 -50 -25 -10 -11 -24 -19 -31 -19 -8 0 -16 -7 -20 -15 -3 -8 -12 -12
-19 -9 -8 3 -21 -2 -30 -10 -22 -23 -92 -48 -119 -44 -21 4 -20 6 12 22 19 10
48 24 64 33 16 8 38 16 51 17 16 1 21 7 19 24 -2 17 3 22 21 22 12 0 34 9 48
20 14 11 34 20 45 20 11 0 22 7 26 15 3 8 12 15 19 15 8 0 22 9 32 20 10 11
33 22 51 26 19 3 34 10 34 14 0 4 17 15 38 25 20 9 52 25 71 35 19 11 39 16
45 13 5 -4 0 -11 -12 -16z m-738 -72 c-7 -16 -24 -21 -24 -6 0 8 7 13 27 20 1
1 0 -6 -3 -14z m159 -260 c1 -6 -20 -21 -47 -35 -27 -14 -60 -35 -74 -47 -26
-24 -155 -88 -198 -99 -14 -4 -37 -17 -51 -30 -44 -41 -74 -25 -33 16 18 18
38 24 77 23 6 0 9 5 7 12 -3 8 9 18 31 25 20 7 39 18 42 26 3 8 12 14 20 14 7
0 24 11 37 24 14 16 41 28 72 34 27 6 40 10 29 11 -19 1 -19 1 1 15 32 23 84
29 87 11z"/>
<path d="M5526 2010 c-4 -19 -3 -75 1 -125 l9 -90 7 102 c7 106 -4 183 -17
113z"/>
<path d="M5512 1795 c-1 -11 -5 -38 -8 -60 -4 -32 -3 -36 6 -22 6 9 9 36 7 60
-2 23 -4 33 -5 22z"/>
<path d="M5476 1626 c-5 -46 -4 -72 3 -79 8 -8 11 1 12 34 0 33 2 39 9 24 7
-19 8 -19 14 5 3 14 2 39 -3 55 l-9 30 -2 -30 -2 -30 -7 30 c-6 25 -8 18 -15
-39z"/>
<path d="M5449 1388 c-7 -145 -7 -189 -2 -231 3 -27 7 -47 9 -44 10 10 14 296
5 302 -7 4 -12 -6 -12 -27z"/>
<path d="M3588 1073 c-10 -11 -18 -26 -17 -34 0 -8 4 -6 9 6 8 19 9 19 9 1 1
-15 4 -17 12 -9 6 6 9 21 7 33 -3 22 -3 22 -20 3z"/>
<path d="M3537 967 c-11 -29 -9 -43 4 -30 6 6 9 19 7 29 -3 18 -4 18 -11 1z"/>
<path d="M3512 850 c0 -19 2 -27 5 -17 2 9 2 25 0 35 -3 9 -5 1 -5 -18z"/>
<path d="M3480 769 c0 -16 -4 -28 -9 -25 -12 8 -21 -18 -21 -57 0 -23 -3 -28
-9 -18 -13 20 -26 -72 -13 -94 8 -15 10 -11 16 19 4 20 11 36 16 36 6 0 10 19
10 43 1 23 7 53 15 67 17 29 19 60 5 60 -5 0 -10 -14 -10 -31z"/>
<path d="M3406 552 c-4 -13 -5 -26 -2 -29 10 -11 18 4 14 29 l-4 23 -8 -23z"/>
<path d="M3377 493 c-4 -3 -7 -20 -7 -38 0 -17 -4 -35 -9 -40 -12 -12 -31 -83
-38 -140 -3 -22 -9 -45 -14 -51 -5 -6 -12 -32 -15 -58 -4 -29 -12 -46 -20 -46
-8 0 -14 -5 -14 -11 0 -5 5 -7 12 -3 7 4 8 3 4 -4 -4 -7 -2 -20 3 -29 9 -16
10 -16 11 5 0 12 5 22 10 22 6 0 10 8 10 19 0 10 7 32 15 47 8 16 15 41 15 55
0 15 7 46 15 69 8 23 15 61 15 84 0 30 3 37 10 26 7 -11 10 2 10 43 0 58 -1
62 -13 50z"/>
<path d="M5096 355 c-8 -40 1 -65 15 -44 11 18 11 66 0 73 -5 3 -12 -10 -15
-29z"/>
<path d="M5071 274 c0 -11 3 -14 6 -6 3 7 2 16 -1 19 -3 4 -6 -2 -5 -13z"/>
<path d="M5050 225 c0 -8 2 -15 4 -15 2 0 6 7 10 15 3 8 1 15 -4 15 -6 0 -10
-7 -10 -15z"/>
<path d="M5024 172 c-14 -22 -28 -82 -19 -82 15 0 32 28 39 63 7 39 -2 48 -20
19z"/>
<path d="M3263 35 c0 -22 2 -30 4 -17 2 12 2 30 0 40 -3 9 -5 -1 -4 -23z"/>
<path d="M4987 43 c-11 -10 -8 -43 3 -43 6 0 10 11 10 25 0 26 -2 29 -13 18z"/>
</g>
</svg>
